<?xml version="1.0" standalone="no"?>
<!DOCTYPE svg PUBLIC "-//W3C//DTD SVG 20010904//EN"
 "http://www.w3.org/TR/2001/REC-SVG-20010904/DTD/svg10.dtd">
<svg version="1.0" xmlns="http://www.w3.org/2000/svg"
 width="612.000000pt" height="612.000000pt" viewBox="0 0 612.000000 612.000000"
 preserveAspectRatio="xMidYMid meet">

<g transform="translate(0.000000,612.000000) scale(0.100000,-0.100000)"
fill="#FFFFFF" stroke="none">
<path d="M2983 5230 c-97 -20 -204 -104 -250 -199 -25 -50 -28 -67 -28 -156 0
-147 27 -197 174 -326 38 -33 41 -40 41 -85 -1 -69 -30 -127 -81 -161 -41 -27
-47 -28 -193 -31 -136 -2 -154 -1 -183 17 -24 15 -34 30 -40 63 l-9 43 -125 0
c-194 0 -209 -18 -209 -245 0 -225 12 -240 195 -240 124 0 145 6 145 41 0 9
13 31 29 48 l29 31 130 0 c161 0 181 -4 231 -47 70 -59 69 -56 54 -648 -28
-1096 -41 -1469 -55 -1510 -7 -22 -33 -60 -58 -85 -101 -101 -223 -92 -480 34
-125 61 -223 125 -323 211 -71 61 -187 185 -187 200 0 4 37 4 83 0 139 -13
142 -12 141 10 -1 18 -167 247 -429 593 -48 61 -92 112 -100 112 -8 0 -17 -10
-19 -22 -7 -33 -66 -775 -66 -825 0 -23 5 -45 11 -49 6 -3 27 9 47 28 55 52
110 90 123 86 6 -2 21 -33 34 -68 91 -256 256 -462 509 -634 134 -92 289 -159
526 -230 110 -32 182 -80 308 -201 l101 -97 125 115 c134 123 196 161 313 191
482 124 877 457 1009 850 14 42 31 76 36 76 14 0 72 -43 121 -89 32 -31 39
-33 52 -21 12 13 11 54 -11 315 -46 557 -47 569 -66 573 -15 3 -141 -160 -486
-626 -60 -82 -63 -108 -9 -98 17 3 67 9 110 12 59 5 77 4 77 -6 0 -25 -225
-236 -320 -299 -174 -115 -403 -211 -503 -211 -101 0 -195 68 -226 163 -10 31
-27 527 -52 1559 -12 467 -12 489 6 528 22 50 63 86 113 101 22 6 91 9 169 7
148 -3 165 -11 183 -78 l10 -37 113 -5 c121 -6 157 2 192 42 18 20 20 38 23
189 2 153 1 169 -18 199 -30 48 -72 62 -193 62 -109 0 -127 -7 -127 -46 0 -13
-11 -36 -24 -51 l-24 -28 -164 0 -165 0 -41 29 c-51 35 -82 96 -82 161 0 43 4
51 36 79 121 102 161 161 185 263 20 91 -16 218 -87 302 -40 48 -123 98 -191
116 -62 16 -96 17 -160 5z m191 -203 c102 -79 101 -236 -3 -310 -98 -68 -227
-34 -283 76 -42 83 -4 202 79 247 57 31 157 24 207 -13z"/>
</g>
</svg>
